<svg id="Layer_1" data-name="Layer 1" xmlns="http://www.w3.org/2000/svg" xmlns:xlink="http://www.w3.org/1999/xlink" viewBox="0 0 1366 768"><defs><style>.cls-1{fill:url(#linear-gradient);}.cls-2{fill:#606060;}.cls-3{fill:#05aef3;}.cls-4,.cls-7{fill:#0e0147;}.cls-5{fill:#fff;}.cls-6{mask:url(#mask);}.cls-7{fill-rule:evenodd;}</style><linearGradient id="linear-gradient" x1="16601.81" y1="-9195.62" x2="10467.93" y2="-12338.16" gradientTransform="matrix(0.07, 0, 0, -0.07, 77.96, -381)" gradientUnits="userSpaceOnUse"><stop offset="0" stop-color="#fff"/><stop offset="1" stop-color="#fff" stop-opacity="0"/></linearGradient><mask id="mask" x="841.33" y="289.69" width="369.88" height="235.91" maskUnits="userSpaceOnUse"><g id="id10"><rect class="cls-1" x="841.33" y="289.69" width="369.88" height="235.91"/></g></mask></defs><rect class="cls-2" x="0.25" y="0.04" width="1366" height="768"/><path class="cls-3" d="M1111.15,347.78h-69.76a4.73,4.73,0,1,1,0-9.45h69.76a4.73,4.73,0,0,1,0,9.45Z"/><path class="cls-3" d="M1111.74,408.67H1060.9a4.73,4.73,0,0,1,0-9.46h50.84a4.73,4.73,0,0,1,0,9.46Z"/><path class="cls-3" d="M1110.55,368.47h-62.66a4.73,4.73,0,1,1,0-9.45h62.66a4.73,4.73,0,1,1,0,9.45Z"/><path class="cls-3" d="M1110.55,388.57h-57.93a4.73,4.73,0,1,1,0-9.45h57.93a4.73,4.73,0,1,1,0,9.45Z"/><path class="cls-3" d="M197.17,357.24v-.65c0-.75,0-1.39,0-1.92a10.11,10.11,0,0,0-.42-2.1,2.36,2.36,0,0,0-1.54-1.63,9.45,9.45,0,0,0-2.57-.66c-.87-.09-1.5-.14-1.87-.14-.12,0-.23-.25-.33-.74a5.25,5.25,0,0,1,0-1.59,2,2,0,0,1,.28-1c2.36.06,4.7.17,7,.33s4.61.23,6.91.23c1.93,0,3.85-.08,5.75-.23s3.75-.27,5.56-.33a6.11,6.11,0,0,1,.18,2.15c-.06.81-.15,1.21-.28,1.21a14.85,14.85,0,0,0-2.33.38,8.23,8.23,0,0,0-2.52.84,3.09,3.09,0,0,0-.75,1.44,8.09,8.09,0,0,0-.38,2.48V365a5,5,0,0,0,.28,1.5,4.29,4.29,0,0,1,.28,1.21c0,.5-.37.95-1.12,1.36a20.54,20.54,0,0,1-2.05,1q-4.31,1.59-9.2,3.08a38.88,38.88,0,0,1-11.26,1.49,32.77,32.77,0,0,1-12.14-2.24,31.68,31.68,0,0,1-10-6.26,28.48,28.48,0,0,1-6.77-9.52,29.33,29.33,0,0,1-2.43-12,29.76,29.76,0,0,1,2.48-12.09,32.92,32.92,0,0,1,6.81-10,31.87,31.87,0,0,1,10-6.87,30.31,30.31,0,0,1,12.23-2.47q4.49,0,9.71.42a74.9,74.9,0,0,1,9.25,1.26c.06.25.25,1,.56,2.38s.67,2.83,1.08,4.48.74,3.15,1,4.49a18,18,0,0,1,.42,2.47c0,.25-.25.53-.74.84a3,3,0,0,1-1.59.47,5.12,5.12,0,0,1-.7-.05,1.06,1.06,0,0,1-.61-.33,26.55,26.55,0,0,0-1.31-3.4,15.19,15.19,0,0,0-2.89-4.21,15.39,15.39,0,0,0-5.14-3.5,20,20,0,0,0-8-1.4,16.37,16.37,0,0,0-8.55,2.1,15.51,15.51,0,0,0-5.56,5.7,27.33,27.33,0,0,0-3,8.12,45.42,45.42,0,0,0-.94,9.3,44,44,0,0,0,1.22,10.36,32.73,32.73,0,0,0,3.64,9.16,19.64,19.64,0,0,0,6,6.49,15,15,0,0,0,8.46,2.38,16,16,0,0,0,4.29-.47,19.7,19.7,0,0,0,2.9-1,4.22,4.22,0,0,0,.51-.42,1.26,1.26,0,0,0,.24-.89Z"/><path class="cls-3" d="M232.66,314.18c1.93,0,4.11,0,6.53-.14s4.52-.23,6.26-.42a3.27,3.27,0,0,1,.33,1.64,2.75,2.75,0,0,1-.33,1.73c-.37,0-1,0-1.87.13a15.66,15.66,0,0,0-2.47.47,2.07,2.07,0,0,0-1.45,1,10.86,10.86,0,0,0-.65,3.5c-.07,1.41-.1,3.1-.1,5.1v16.71a82.21,82.21,0,0,0,.38,8.27,26.11,26.11,0,0,0,1.87,7.33,12.92,12.92,0,0,0,9.52,8.18,23.74,23.74,0,0,0,4.39.51,12.25,12.25,0,0,0,7-2.29,16.61,16.61,0,0,0,5.56-7.24q2.19-5,2.19-12.89v-15.5a59.91,59.91,0,0,0-.37-6.35,20.1,20.1,0,0,0-.94-4.77,2.52,2.52,0,0,0-1.77-1.35,18.42,18.42,0,0,0-2.9-.61,20.28,20.28,0,0,0-2.15-.18,2.76,2.76,0,0,1-.32-1.73,3.41,3.41,0,0,1,.32-1.64q3.27.28,5.75.42c1.65.1,3.53.14,5.65.14s3.8-.07,5.42-.23,3.36-.26,5.23-.33a3.41,3.41,0,0,1,.32,1.64,2.76,2.76,0,0,1-.32,1.73c-.38,0-1.09,0-2.15.13a16.51,16.51,0,0,0-3,.57,2.5,2.5,0,0,0-1.82,1.44,20.54,20.54,0,0,0-.93,4.72,56.19,56.19,0,0,0-.38,6.3V347.9q0,9.25-3.5,15.22a22,22,0,0,1-9.15,8.83,26.89,26.89,0,0,1-12.28,2.85,30.1,30.1,0,0,1-10.84-2,19.28,19.28,0,0,1-8.4-6.07,22.25,22.25,0,0,1-3.88-8.27,49,49,0,0,1-1.26-12V327.17c0-2,0-3.69-.1-5.1a10.86,10.86,0,0,0-.65-3.5c-.12-.43-.59-.76-1.4-1a17.09,17.09,0,0,0-2.47-.47c-.85-.09-1.48-.13-1.92-.13a2.75,2.75,0,0,1-.33-1.73,3.27,3.27,0,0,1,.33-1.64c1.81.19,3.95.33,6.44.42S230.73,314.18,232.66,314.18Z"/><path class="cls-3" d="M297.76,314.18c1.61,0,3.33,0,5.13-.14s3.43-.23,4.86-.42a49.91,49.91,0,0,0,4.44,6.87q3.12,4.25,7.28,9.43t8.74,10.69q4.57,5.52,8.77,10.75a4.79,4.79,0,0,0,.19-1.64V330.53c0-1.18-.05-2.6-.14-4.25s-.2-3.19-.33-4.62a8,8,0,0,0-.56-2.81,2.72,2.72,0,0,0-2-1.26A18.55,18.55,0,0,0,331,317c-1.09-.09-1.82-.14-2.19-.14-.07,0-.14-.45-.24-1.35a3.48,3.48,0,0,1,.24-2c2.11.06,4,.19,5.55.37a47.54,47.54,0,0,0,5.56.28q3,0,5.88-.28c1.93-.18,3.8-.31,5.61-.37a4.57,4.57,0,0,1,.23,1.54,3.34,3.34,0,0,1-.42,1.92c-.25,0-.93,0-2.05.09a18.63,18.63,0,0,0-3.41.51c-1.16.28-1.86.77-2.1,1.45a19.16,19.16,0,0,0-.42,2.71q-.24,2.06-.33,4.44c-.06,1.58-.09,2.94-.09,4.06v31c0,2.68,0,4.89.14,6.63s.17,3.8.23,6.16a2.32,2.32,0,0,1-1.17.28c-.65.06-1,.1-1.17.1a2.15,2.15,0,0,1-1.35-.61,11.54,11.54,0,0,1-1.45-1.54l-37.17-45.67v33.06a41.34,41.34,0,0,0,.33,5.09,18.73,18.73,0,0,0,.7,3.69,3.17,3.17,0,0,0,2.05,1.4,18.58,18.58,0,0,0,3.36.79c1.12.16,1.81.24,2.06.24a2.88,2.88,0,0,1,.42,1.82,5.21,5.21,0,0,1-.24,1.63c-1.8-.12-3.67-.28-5.6-.46s-3.89-.28-5.88-.28a47.54,47.54,0,0,0-5.56.28c-1.59.18-3.44.34-5.56.46a3.38,3.38,0,0,1-.23-2,4,4,0,0,1,.23-1.35,15.6,15.6,0,0,0,2.2-.28,21.93,21.93,0,0,0,3.17-.79,3,3,0,0,0,1.92-1.36,14.62,14.62,0,0,0,.79-3.78,45.23,45.23,0,0,0,.33-5.37V327.07a30.51,30.51,0,0,0-.38-4.39,9,9,0,0,0-1.3-3.83,2.71,2.71,0,0,0-1.64-1,25.56,25.56,0,0,0-2.52-.6,10.81,10.81,0,0,0-1.82-.23c-.13,0-.23-.25-.33-.75a6.88,6.88,0,0,1-.09-1.59,1.92,1.92,0,0,1,.23-1c1.43.07,3,.17,4.63.33S295.64,314.18,297.76,314.18Z"/><path class="cls-3" d="M383.87,313.72a45.06,45.06,0,0,1,18.45,3.5,27.5,27.5,0,0,1,12.23,10.13,28.48,28.48,0,0,1,4.35,16,32.16,32.16,0,0,1-2.76,13.87,25.85,25.85,0,0,1-7.66,9.62,33,33,0,0,1-11.39,5.61,51.31,51.31,0,0,1-13.87,1.82H356.79a3.75,3.75,0,0,1-.33-1.68,2.61,2.61,0,0,1,.33-1.68l2-.24a15.8,15.8,0,0,0,2.52-.46c.81-.22,1.27-.52,1.4-.89a11,11,0,0,0,.65-3.55c.06-1.43.1-3.11.1-5V327.17c0-2,0-3.69-.1-5.1a10.86,10.86,0,0,0-.65-3.5c-.13-.43-.59-.75-1.4-.93a15.77,15.77,0,0,0-2.52-.37c-.88-.07-1.53-.1-2-.1a2.81,2.81,0,0,1-.33-1.77,3.37,3.37,0,0,1,.33-1.68q3.07.18,6.63.23t6.44.05q2.89,0,6.45-.1Zm-7.66,10.36v39c0,.9.05,1.85.14,2.85a7.84,7.84,0,0,0,.52,2.33,3.62,3.62,0,0,0,2.24,1.54,10.73,10.73,0,0,0,3.55.61q11.11,0,16.39-6.4t5.28-19.66q0-9-3-14.94a20.72,20.72,0,0,0-8.17-9,23.65,23.65,0,0,0-12-3c-1,0-1.94.05-2.85.14s-1.48.39-1.72.89a6,6,0,0,0-.33,1.87c0,.74-.05,1.62-.05,2.61v1.12Z"/><path class="cls-3" d="M453.36,313.72a26.36,26.36,0,0,1,10.18,1.86,16,16,0,0,1,7.1,5.56,15.55,15.55,0,0,1,2.62,9.2,11.48,11.48,0,0,1-1.26,5.28,18.18,18.18,0,0,1-3.23,4.48,20.1,20.1,0,0,1-4.06,3.27,15.72,15.72,0,0,1-3.78,1.73q3.36,4.48,6.35,8.36t6.82,8.64a23.24,23.24,0,0,0,6.72,6.16,19.29,19.29,0,0,0,5.7,2.29c1.56.28,2.46.42,2.71.42a2.62,2.62,0,0,1,.23,1.82,8,8,0,0,1-.23,1.54l-5.56.24q-3.6.14-6.4.14a15.93,15.93,0,0,1-8.73-2.24,18.82,18.82,0,0,1-5.18-4.58l-14.76-19.8c-.75-.94-1.31-1.4-1.68-1.4h-1.31v15.22c0,1.62,0,3,.09,4.3a10.1,10.1,0,0,0,.56,3.08,2.32,2.32,0,0,0,1.45.93,12.92,12.92,0,0,0,2.52.52c.91.09,1.54.17,1.92.23a2.61,2.61,0,0,1,.33,1.68,4.06,4.06,0,0,1-.33,1.68c-1.75-.18-3.88-.34-6.4-.46s-4.75-.19-6.68-.19-4.11.06-6.54.19-4.54.28-6.35.46a3.93,3.93,0,0,1-.32-1.68,2.56,2.56,0,0,1,.32-1.68c.44-.06,1.09-.14,2-.23a13.84,13.84,0,0,0,2.53-.52c.8-.24,1.27-.56,1.4-.93a11,11,0,0,0,.65-3.55q.09-2.14.09-5V327.17c0-2,0-3.69-.09-5.1a10.86,10.86,0,0,0-.65-3.5c-.13-.43-.6-.75-1.4-.93a15.73,15.73,0,0,0-2.53-.37c-.87-.07-1.52-.1-2-.1a2.76,2.76,0,0,1-.32-1.77,3.52,3.52,0,0,1,.32-1.68q3.09.18,6.63.23t6.45.05q2.89,0,6.49-.14C448.15,313.76,450.68,313.72,453.36,313.72Zm6.35,17.56a29.66,29.66,0,0,0-.74-6.78,10.48,10.48,0,0,0-2.71-5.09,7.76,7.76,0,0,0-5.7-2c-1,0-1.95.05-2.85.14a2,2,0,0,0-1.73.89,6.3,6.3,0,0,0-.32,1.87c0,.74-.05,1.62-.05,2.61v20.18h4.11a8.77,8.77,0,0,0,4.9-1.5,10.68,10.68,0,0,0,3.69-4.2A13.15,13.15,0,0,0,459.71,331.28Z"/><path class="cls-3" d="M501,314.18c1.93,0,4.11,0,6.53-.14s4.52-.23,6.26-.42a3.27,3.27,0,0,1,.33,1.64,2.75,2.75,0,0,1-.33,1.73c-.37,0-1,0-1.87.13a15.66,15.66,0,0,0-2.47.47,2.07,2.07,0,0,0-1.45,1,10.86,10.86,0,0,0-.65,3.5c-.07,1.41-.1,3.1-.1,5.1v16.71a82.21,82.21,0,0,0,.38,8.27,26.11,26.11,0,0,0,1.87,7.33,12.92,12.92,0,0,0,9.52,8.18,23.74,23.74,0,0,0,4.39.51,12.25,12.25,0,0,0,7-2.29,16.61,16.61,0,0,0,5.56-7.24q2.19-5,2.19-12.89v-15.5a59.91,59.91,0,0,0-.37-6.35,20.1,20.1,0,0,0-.94-4.77,2.52,2.52,0,0,0-1.77-1.35,18.42,18.42,0,0,0-2.9-.61A20.28,20.28,0,0,0,530,317a2.76,2.76,0,0,1-.32-1.73,3.41,3.41,0,0,1,.32-1.64q3.27.28,5.75.42c1.65.1,3.53.14,5.65.14s3.8-.07,5.42-.23,3.36-.26,5.23-.33a3.41,3.41,0,0,1,.32,1.64,2.83,2.83,0,0,1-.32,1.73c-.38,0-1.09,0-2.15.13a16.51,16.51,0,0,0-3,.57,2.5,2.5,0,0,0-1.82,1.44,20.54,20.54,0,0,0-.93,4.72,56.19,56.19,0,0,0-.38,6.3V347.9q0,9.25-3.5,15.22a22,22,0,0,1-9.15,8.83,26.89,26.89,0,0,1-12.28,2.85,30.1,30.1,0,0,1-10.84-2,19.28,19.28,0,0,1-8.4-6.07,22.25,22.25,0,0,1-3.88-8.27,49,49,0,0,1-1.26-12V327.17c0-2,0-3.69-.1-5.1a10.86,10.86,0,0,0-.65-3.5c-.12-.43-.59-.76-1.4-1a17,17,0,0,0-2.48-.47c-.84-.09-1.48-.13-1.91-.13a2.75,2.75,0,0,1-.33-1.73,3.27,3.27,0,0,1,.33-1.64c1.81.19,3.95.33,6.44.42S499.07,314.18,501,314.18Z"/><path class="cls-3" d="M568,314.09c1.56,0,3.1-.06,4.63-.19s3.19-.21,5-.28c.69,1.44,1.64,3.52,2.85,6.26s2.6,5.88,4.16,9.43,3.22,7.3,5,11.26,3.5,7.86,5.18,11.72a.94.94,0,0,0,.37.19c.07,0,.14-.08.24-.24a.83.83,0,0,0,.14-.32q2.24-5.52,3.92-9.81t3.5-9.06q1.83-4.77,3.32-8.87c.5-1.31,1-2.76,1.45-4.35s1-3.56,1.63-5.93c.31,0,1.14,0,2.48.1s2.75.11,4.25.14,2.52,0,3.08,0c1.55,0,3.27-.07,5.14-.23s3.7-.26,5.51-.33a3.81,3.81,0,0,1,.51,1.59,2.69,2.69,0,0,1-.14,1.87c-.37,0-1.14.08-2.29.23a6.64,6.64,0,0,0-2.47.7,2.83,2.83,0,0,0-1,1.17,6.09,6.09,0,0,0-.24,2.57c.06,1.56.14,3.87.24,7s.2,6.49.32,10.22.25,7.48.38,11.21.24,7.07.37,10c.12,1.74.25,3.41.37,5a16,16,0,0,0,.84,4.16,2.24,2.24,0,0,0,1.54,1,14.26,14.26,0,0,0,2.57.51c.87.09,1.44.14,1.68.14a4.48,4.48,0,0,1,.19,3.36c-1.81-.12-3.83-.28-6.07-.46s-4.36-.28-6.35-.28-4.52.09-7.19.28-5.08.34-7.19.46a2.63,2.63,0,0,1-.33-1.54,5.52,5.52,0,0,1,.14-1.82,16.36,16.36,0,0,0,2-.19,20.15,20.15,0,0,0,2.76-.56,2.71,2.71,0,0,0,1.72-1,4.18,4.18,0,0,0,.56-1.54,8.67,8.67,0,0,0,.19-1.64v-2.57q0-1.81-.09-3l-.94-31.76c0-.12,0-.56-.09-1.31s-.25-1.12-.56-1.12c-.13,0-.28.22-.47.66l-16.06,43.43a5.57,5.57,0,0,1-.75,1.3,11.16,11.16,0,0,1-1.49,1.73,2.52,2.52,0,0,1-1.69.8,3.28,3.28,0,0,1-.84-.19l-20.26-47.73q-.2,5.7-.33,9.67t-.24,6.91c-.06,2-.12,3.85-.18,5.65s-.13,3.75-.19,5.84-.15,4.56-.28,7.42a26.71,26.71,0,0,0,.09,3.69c.13,1.47.22,2.35.28,2.66a2.25,2.25,0,0,0,1.31,1.31,11.07,11.07,0,0,0,2.57.89c1,.22,1.84.39,2.62.51a12.3,12.3,0,0,0,1.44.19,5.65,5.65,0,0,1,.28,1.54,5.5,5.5,0,0,1-.09,1.82c-1.81-.12-3.64-.28-5.51-.46a57.3,57.3,0,0,0-5.79-.28,51.24,51.24,0,0,0-5.7.28c-1.68.18-3.58.34-5.7.46a3.21,3.21,0,0,1-.28-1.54,6.73,6.73,0,0,1,.19-1.73,14.3,14.3,0,0,0,2.24-.32,15.88,15.88,0,0,0,3.37-1.08,3.81,3.81,0,0,0,2.14-1.86,11,11,0,0,0,.42-2.11c.16-1.08.3-2.22.42-3.41s.19-2,.19-2.52c.12-2.11.25-4.67.37-7.66s.25-6.1.38-9.34.25-6.35.37-9.34.22-5.58.28-7.8.13-3.75.19-4.62c0-.31,0-.65,0-1a1.83,1.83,0,0,0-.42-1,5.24,5.24,0,0,0-2.61-1.36,12.41,12.41,0,0,0-3.27-.6,3.08,3.08,0,0,1-.24-1.92,5.62,5.62,0,0,1,.24-1.45c1.43.07,2.6.13,3.5.19l2.8.19C565.43,314.06,566.59,314.09,568,314.09Z"/><path class="cls-3" d="M706.38,314a22.53,22.53,0,0,0,5-.42,16,16,0,0,0,2.66-.84,4.23,4.23,0,0,1,1.78-.42,3.33,3.33,0,0,1,.7,0,2.38,2.38,0,0,1,.42.23l2.43,16.72a2.81,2.81,0,0,1-1.08.42,6,6,0,0,1-1.54.24c-.56,0-.87-.16-.93-.47a17.54,17.54,0,0,0-1.87-5.6,13.34,13.34,0,0,0-3.46-4.25A6.93,6.93,0,0,0,706.1,318h-8.5V360.7c0,1.93,0,3.61.1,5a11,11,0,0,0,.65,3.55,2.32,2.32,0,0,0,1.45.93,12.87,12.87,0,0,0,2.47.52c.88.09,1.5.17,1.87.23a2.61,2.61,0,0,1,.33,1.68,3.75,3.75,0,0,1-.33,1.68c-1.74-.18-3.86-.34-6.35-.46s-4.7-.19-6.63-.19-4.11.06-6.54.19-4.54.28-6.35.46a3.75,3.75,0,0,1-.33-1.68,2.61,2.61,0,0,1,.33-1.68c.44-.06,1.07-.14,1.91-.23a13.84,13.84,0,0,0,2.48-.52c.81-.24,1.28-.56,1.4-.93a11,11,0,0,0,.65-3.55c.07-1.43.1-3.11.1-5V318h-8.5a6.93,6.93,0,0,0-4.39,1.64,13.47,13.47,0,0,0-3.46,4.25,17.52,17.52,0,0,0-1.86,5.6c-.07.31-.38.47-.94.47a6,6,0,0,1-1.54-.24,2.67,2.67,0,0,1-1.07-.42l2.42-16.72a2.08,2.08,0,0,1,.43-.23,3.2,3.2,0,0,1,.7,0,4.15,4.15,0,0,1,1.77.42,16,16,0,0,0,2.66.84,22.53,22.53,0,0,0,5,.42Z"/><path class="cls-3" d="M728.71,361.72l19.42-44.64a11.81,11.81,0,0,1,1.54-2.2q1.08-1.26,1.83-1.26c1,0,1.71.19,2,.56l18.68,46.24a30.42,30.42,0,0,1,1.4,3.59,26.46,26.46,0,0,0,1.12,3,5.55,5.55,0,0,0,2.38,2.71,8.43,8.43,0,0,0,3,1c1,.13,1.57.19,1.82.19a4.14,4.14,0,0,1,.42,1.87c0,.81,0,1.31-.23,1.49-1.81-.12-3.8-.28-6-.46s-4.27-.28-6.26-.28c-1.37,0-2.93,0-4.67.14s-3.41.2-5,.32-2.95.22-4.07.28a2.68,2.68,0,0,1-.28-1.07,6.61,6.61,0,0,1,0-1.54c.06-.5.16-.75.28-.75a11.68,11.68,0,0,0,2.85-.42,6,6,0,0,0,2.57-1.26,1.93,1.93,0,0,0,.75-1.49,8.45,8.45,0,0,0-.56-1.73l-1.36-3.5c-.53-1.37-1.06-2.73-1.59-4.07s-1.16-2.88-1.91-4.62a1.47,1.47,0,0,0-.65-.38c-1.31-.06-2.57-.09-3.79-.09h-9.9q-2.1,0-4.53.09a.79.79,0,0,0-.65.47c-.81,1.87-1.47,3.4-2,4.58L734,361.63c-.44,1.12-.89,2.37-1.35,3.74a12.06,12.06,0,0,0-.7,2.52c0,.75.52,1.35,1.58,1.82a13.64,13.64,0,0,0,3.32,1,19.31,19.31,0,0,0,2.1.28,2.27,2.27,0,0,1,.37,1.78,4.14,4.14,0,0,1-.28,1.58c-1.55-.18-3.08-.36-4.57-.51a50.16,50.16,0,0,0-5.23-.23,50.81,50.81,0,0,0-5.37.23c-1.47.15-3,.33-4.63.51a2.53,2.53,0,0,1-.37-1.4,4.33,4.33,0,0,1,.19-1.87,7.63,7.63,0,0,0,1.91-.42,19,19,0,0,0,2.71-1.07,4.31,4.31,0,0,0,1.82-1.4,21.6,21.6,0,0,0,1.78-3.22C727.68,364,728.15,363,728.71,361.72ZM747,330.53l-7.75,17.93c.06.19.12.28.19.28.93.06,2.18.13,3.73.19S746,349,747,349c1.43,0,2.66,0,3.69,0s2.23-.07,3.6-.14c.12,0,.22-.12.28-.37Z"/><path class="cls-3" d="M797.73,314.09q3.36,0,6.86-.19t6.22-.28a5.9,5.9,0,0,1,.14,1.08,13.18,13.18,0,0,1,0,1.54c0,.5-.14.75-.33.75a11.9,11.9,0,0,0-1.78.18,9.23,9.23,0,0,0-2,.56,1.41,1.41,0,0,0-1,1.12,3.78,3.78,0,0,0,.65,2.06l10.18,15.32c1.37-1.75,2.88-3.63,4.53-5.66s3.18-3.92,4.58-5.69a21.25,21.25,0,0,0,2.75-4.16,2.13,2.13,0,0,0,.28-.93c0-.81-.75-1.48-2.24-2A13.58,13.58,0,0,0,822,317c-.12,0-.23-.25-.32-.75a5.24,5.24,0,0,1-.05-1.59,2,2,0,0,1,.28-1q2.43.28,6,.42c2.4.1,4.44.14,6.12.14a80.93,80.93,0,0,0,10.93-.56,2.48,2.48,0,0,1,.23,1.08,13.18,13.18,0,0,1,0,1.54c0,.5-.14.75-.32.75a20.6,20.6,0,0,0-2.06.23,15.16,15.16,0,0,0-3.92,1.21,11.63,11.63,0,0,0-4.2,3.32l-15.6,18.58q2.89,4.31,5.88,8.78t5.61,8.32q2.61,3.82,4.43,6.44a34,34,0,0,0,2.38,3.18,8.7,8.7,0,0,0,3.18,2.43,15.93,15.93,0,0,0,3.55,1.16,14.48,14.48,0,0,0,2.33.33,4.92,4.92,0,0,1,.33,1.73,2.7,2.7,0,0,1-.33,1.63L842,374.1c-1.84-.09-3.66-.17-5.47-.23s-3.33-.1-4.58-.1c-2.55,0-4.95.07-7.19.19s-4.64.25-7.19.37a2.52,2.52,0,0,1-.28-1.07,5,5,0,0,1,0-1.54c.09-.5.2-.75.32-.75a7.66,7.66,0,0,0,1.78-.33,11.08,11.08,0,0,0,2.29-.88c.71-.38,1.07-.84,1.07-1.4a1.5,1.5,0,0,0-.28-.94L810.34,349c-.38.44-1.09,1.39-2.15,2.85s-2.27,3.11-3.64,4.95-2.66,3.63-3.88,5.37-2.16,3.15-2.85,4.2a4.33,4.33,0,0,0-.74,1.59,2,2,0,0,0,1.3,1.73,9.76,9.76,0,0,0,3.13,1,20.7,20.7,0,0,0,3.13.28,2.67,2.67,0,0,1,.42,1.54,6.62,6.62,0,0,1-.14,1.82l-3.69-.23c-1.46-.09-2.94-.17-4.44-.23s-2.8-.1-3.92-.1c-2.37,0-4.45.07-6.26.19l-5.41.37a3.9,3.9,0,0,1,0-3.36c.25,0,1-.08,2.19-.23a17.44,17.44,0,0,0,4.07-1.12,8.1,8.1,0,0,0,3.64-2.85l16.25-22.14L794.55,325q-1.21-1.87-2.52-4a9,9,0,0,0-2.33-2.76,5.3,5.3,0,0,0-1.92-.74,24.57,24.57,0,0,0-2.52-.43c-.84-.09-1.45-.13-1.82-.13-.13,0-.22-.25-.28-.75a7,7,0,0,1,0-1.59,2,2,0,0,1,.28-1q3.36.11,7.14.28T797.73,314.09Z"/><path class="cls-4" d="M180,445.82c-7.78,0-13.28-4.34-13.39-10.73H172c.34,3.22,2.61,6.45,8,6.45,4.9,0,7.78-2.78,7.78-6.45,0-10.45-20.95-3.78-20.95-18.17,0-6.39,5.17-10.73,12.84-10.73,7.39,0,12.23,4.06,12.84,9.95H187c-.33-2.61-2.78-5.56-7.5-5.61-4.17-.11-7.45,2.05-7.45,6.22,0,10,20.9,3.78,20.9,18.12C192.94,440.37,188.44,445.82,180,445.82Z"/><path class="cls-4" d="M282.35,410.8H266.56v12.95h14.12v4.17H266.56v13.34h15.79v4.17H261.51V406.64h20.84Z"/><path class="cls-4" d="M363.64,406.69c9.11,0,13.45,5.06,13.45,11.39,0,4.95-2.72,9.67-9.23,11.12l9.73,16.23h-6.06l-9.22-15.84h-6.12v15.84h-5.05V406.69Zm0,4.17h-7.45v14.67h7.45c5.72,0,8.22-3.11,8.22-7.45S369.42,410.86,363.64,410.86Z"/><path class="cls-4" d="M472.72,406.69h5.34l-14.62,38.74H457.6L443,406.69h5.39l12.17,33.4Z"/><path class="cls-4" d="M544.73,406.69h5.06v38.74h-5.06Z"/><path class="cls-4" d="M637,406.19c8.39,0,15.06,4.23,17.95,11.73h-6.06c-2.11-4.67-6.22-7.28-11.89-7.28-8.12,0-14.17,5.89-14.17,15.39s6.05,15.34,14.17,15.34c5.67,0,9.78-2.61,11.89-7.22h6.06c-2.89,7.44-9.56,11.61-17.95,11.61-10.84,0-19.34-8.11-19.34-19.73S626.14,406.19,637,406.19Z"/><path class="cls-4" d="M744.39,410.8H728.61v12.95h14.11v4.17H728.61v13.34h15.78v4.17H723.55V406.64h20.84Z"/><path class="cls-4" d="M825.46,445.82c-7.78,0-13.28-4.34-13.39-10.73h5.39c.33,3.22,2.61,6.45,8,6.45,4.89,0,7.78-2.78,7.78-6.45,0-10.45-21-3.78-21-18.17,0-6.39,5.17-10.73,12.84-10.73,7.39,0,12.22,4.06,12.84,9.95h-5.56c-.33-2.61-2.78-5.56-7.5-5.61-4.17-.11-7.45,2.05-7.45,6.22,0,10,20.89,3.78,20.89,18.12C838.35,440.37,833.85,445.82,825.46,445.82Z"/><path class="cls-3" d="M1115.12,250.24h-56.41c-.72,1.51-1.46,3-2.28,4.51-.91,1.65-1.84,3.3-2.76,4.95h61.45a19.1,19.1,0,0,1,19.08,19.09v118.5q4.85-3.78,9.46-7.53v-111A28.58,28.58,0,0,0,1115.12,250.24Z"/><path class="cls-3" d="M1043.76,250.24H933.21a26,26,0,0,0-26,26v46.11h42.56v20.09a4.73,4.73,0,1,0,9.46,0v-66.2a26,26,0,0,0-6-16.56h83.31c.65-.93,1.32-1.87,2-2.79C1040.22,254.67,1042,252.45,1043.76,250.24Zm-94,62.67h-33.1V276.26a16.55,16.55,0,1,1,33.1,0Z"/><path class="cls-4" d="M1098.68,307.65,1017.59,309l-.19.16a5.11,5.11,0,0,1-.83.62,2.61,2.61,0,0,1-.76.25h-.71a2.16,2.16,0,0,1-1.44-1l-36.48.6,121.5,2h.06a2,2,0,1,0-.06-4Z"/><path class="cls-4" d="M1042.84,274.41c-.16.3-.26.56-.41.78a209,209,0,0,1-19.87,26.19.89.89,0,0,1-1.37.2c-.72-.51-1.47-1-2.22-1.45a1,1,0,0,1-.44-1.52c1.78-3.58,3.48-7.21,5.33-10.75a193.84,193.84,0,0,1,10.4-17.42c.17-.25.28-.59.52-.73s.76-.32,1-.19c2.25,1.42,4.46,2.89,6.68,4.36C1042.6,274,1042.69,274.22,1042.84,274.41Zm-21.49,25.69a.44.44,0,0,0,.65,0,5.8,5.8,0,0,0,.52-.58c4.39-5.95,8.8-11.88,13.13-17.88,1.69-2.33,3.2-4.8,4.76-7.23l0-.05a.39.39,0,0,0-.54-.49.75.75,0,0,0-.2.1,1.08,1.08,0,0,0-.2.32q-7.71,12-16.54,23.28l-1.5,1.9C1021.28,299.71,1021.2,299.92,1021.35,300.1Z"/><path class="cls-4" d="M1056.18,243.27a2.3,2.3,0,0,1,2,3.44c-1.13,2.37-2.23,4.77-3.5,7.07-3.44,6.23-7,12.4-10.46,18.59-.14.25-.31.47-.47.7a.89.89,0,0,1-1.37.3c-2.06-1.34-4.11-2.68-6.15-4.05-.61-.4-.64-.9-.12-1.63,1.44-2.06,2.81-4.16,4.36-6.13,4.46-5.69,9-11.34,13.51-17A2.63,2.63,0,0,1,1056.18,243.27Zm-.58,5.65a.33.33,0,0,0-.2-.45h-.08a.87.87,0,0,0-.58.35c-.52.9-1,1.84-1.48,2.74-2.92,5-5.83,10-8.79,14.91-.74,1.24-1.65,2.37-2.45,3.58l0,.09a.42.42,0,0,0,.62.45l.07,0a4.29,4.29,0,0,0,.61-.78,189.53,189.53,0,0,0,12.17-20.49A2.59,2.59,0,0,0,1055.6,248.92Z"/><path class="cls-4" d="M1053.77,243.18c-.34.45-.5.7-.7.92a190.57,190.57,0,0,0-15.92,20,13.24,13.24,0,0,1-1,1.5c-.18.21-.56.25-.85.36,0-.31-.13-.71,0-.92,1.6-2.34,3.2-4.69,4.89-7a184.89,184.89,0,0,1,12.18-14.76c.14-.15.29-.39.44-.4A3.89,3.89,0,0,1,1053.77,243.18Z"/><path class="cls-4" d="M1015.56,308a.16.16,0,0,1-.23-.09,1.14,1.14,0,0,1-.08-.57c.78-2.25,1.6-4.48,2.39-6.72.19-.55.43-.69.93-.35.84.57,1.69,1.12,2.54,1.67.45.29.44.46-.27,1.13-1.67,1.59-2.43,2.5-4.75,4.53A3,3,0,0,1,1015.56,308Z"/><path class="cls-3" d="M1029.18,358.35V465.83l-1,.54c-.31.18-.62.34-.93.51-3,1.62-5.92,3.21-8.85,4.76-.32.18-.65.36-1,.52s-.65.36-1,.52q-7.94,4.19-15.67,8.05c-.32.16-.64.32-.95.46s-.6.31-.89.45q-9,4.5-17.74,8.52l-2.14,1h-49.4a17.07,17.07,0,0,1-3.87-.43,18,18,0,0,1-14.07-17.53V358.35a18,18,0,0,1,17.94-18h81.56A18,18,0,0,1,1029.18,358.35Z"/><path class="cls-4" d="M1011.23,339.43H929.67a18.93,18.93,0,0,0-18.92,18.92V473.18a18.91,18.91,0,0,0,18.92,18.93h47.26l2.14-1,2.14-1H929.67c-.61,0-1.22,0-1.82-.1a17,17,0,0,1-15.14-16.88V358.35a17,17,0,0,1,17-17h81.56a17,17,0,0,1,17,17v108l1-.54c.33-.17.65-.36,1-.54V358.35A18.94,18.94,0,0,0,1011.23,339.43Z"/><rect class="cls-5" x="923.47" y="350.19" width="93.96" height="31.32" rx="7.71"/><path class="cls-4" d="M1009.72,349.2H931.19a8.71,8.71,0,0,0-8.7,8.7v15.9a8.7,8.7,0,0,0,8.7,8.68h78.53a8.7,8.7,0,0,0,8.7-8.68V357.9A8.71,8.71,0,0,0,1009.72,349.2Zm6.74,24.6a6.74,6.74,0,0,1-6.74,6.73H931.19a6.73,6.73,0,0,1-6.74-6.73V357.9a6.73,6.73,0,0,1,6.74-6.73h78.53a6.74,6.74,0,0,1,6.74,6.73Z"/><path class="cls-5" d="M1017.44,415.29v56.87c-.33.18-.65.36-1,.52q-7.94,4.19-15.67,8.05c-.32.16-.64.32-.95.46,0-.1,0-.23,0-.35V415.29a2.46,2.46,0,0,1,2.46-2.46H1015A2.47,2.47,0,0,1,1017.44,415.29Z"/><path class="cls-4" d="M1015,411.85h-12.69a3.45,3.45,0,0,0-3.44,3.44v65.55a2.71,2.71,0,0,0,.11.8c.29-.14.59-.28.89-.45s.63-.3.95-.46V415.29a1.5,1.5,0,0,1,1.49-1.49H1015a1.5,1.5,0,0,1,1.49,1.49v57.39c.33-.16.65-.34,1-.52s.66-.34,1-.52V415.29A3.45,3.45,0,0,0,1015,411.85Z"/><rect class="cls-5" x="937.17" y="395.21" width="21.53" height="7.83" rx="0.93"/><path class="cls-4" d="M956.89,394.24H939a2.8,2.8,0,0,0-2.8,2.79v4.19A2.82,2.82,0,0,0,939,404h17.9a2.81,2.81,0,0,0,2.79-2.81V397A2.79,2.79,0,0,0,956.89,394.24Zm.84,7a.84.84,0,0,1-.84.84H939a.84.84,0,0,1-.84-.84V397a.85.85,0,0,1,.84-.84h17.9a.85.85,0,0,1,.84.84Z"/><rect class="cls-5" x="966.54" y="395.21" width="21.53" height="7.83" rx="0.93"/><path class="cls-4" d="M986.25,394.24H968.36a2.79,2.79,0,0,0-2.8,2.79v4.19a2.81,2.81,0,0,0,2.8,2.81h17.89a2.81,2.81,0,0,0,2.8-2.81V397A2.79,2.79,0,0,0,986.25,394.24Zm.84,7a.84.84,0,0,1-.84.84H968.36a.84.84,0,0,1-.84-.84V397a.85.85,0,0,1,.84-.84h17.89a.85.85,0,0,1,.84.84Z"/><rect class="cls-5" x="995.9" y="395.21" width="21.53" height="7.83" rx="0.93"/><path class="cls-4" d="M1015.62,394.24h-17.9a2.79,2.79,0,0,0-2.79,2.79v4.19a2.81,2.81,0,0,0,2.79,2.81h17.9a2.82,2.82,0,0,0,2.8-2.81V397A2.81,2.81,0,0,0,1015.62,394.24Zm.84,7a.84.84,0,0,1-.84.84h-17.9a.83.83,0,0,1-.84-.84V397a.84.84,0,0,1,.84-.84h17.9a.85.85,0,0,1,.84.84Z"/><rect class="cls-4" x="922.98" y="413.32" width="68.52" height="68.52" rx="2.46"/><rect class="cls-5" x="925.92" y="416.26" width="15.66" height="15.66"/><path class="cls-4" d="M924.93,415.28V432.9h17.63V415.28Zm15.67,15.66H926.9V417.23h13.7Z"/><rect class="cls-5" x="949.41" y="416.26" width="15.66" height="15.66"/><path class="cls-4" d="M948.43,415.28V432.9H966V415.28Zm15.66,15.66h-13.7V417.23h13.7Z"/><rect class="cls-5" x="972.9" y="416.26" width="15.66" height="15.66"/><path class="cls-4" d="M971.92,415.28V432.9h17.61V415.28Zm15.66,15.66h-13.7V417.23h13.7Z"/><rect class="cls-5" x="925.92" y="439.75" width="15.66" height="15.66"/><path class="cls-4" d="M924.93,438.76v17.63h17.63V438.76Zm15.67,15.67H926.9V440.72h13.7Z"/><rect class="cls-5" x="949.41" y="439.75" width="15.66" height="15.66"/><path class="cls-4" d="M948.43,438.76v17.63H966V438.76Zm15.66,15.67h-13.7V440.72h13.7Z"/><rect class="cls-5" x="972.9" y="439.75" width="15.66" height="15.66"/><path class="cls-4" d="M971.92,438.76v17.63h17.61V438.76Zm15.66,15.67h-13.7V440.72h13.7Z"/><rect class="cls-5" x="925.92" y="463.24" width="15.66" height="15.66"/><path class="cls-4" d="M924.93,462.25v17.63h17.63V462.25Zm15.67,15.67H926.9v-13.7h13.7Z"/><rect class="cls-5" x="949.41" y="463.24" width="15.66" height="15.66"/><path class="cls-4" d="M948.43,462.25v17.63H966V462.25Zm15.66,15.67h-13.7v-13.7h13.7Z"/><rect class="cls-5" x="972.9" y="463.24" width="15.66" height="15.66"/><path class="cls-4" d="M971.92,462.25v17.63h17.61V462.25Zm15.66,15.67h-13.7v-13.7h13.7Z"/><path class="cls-3" d="M1001.53,356.44a9,9,0,1,0,9,9A9,9,0,0,0,1001.53,356.44Zm1.32,14.3v1.2a.49.49,0,0,1-.49.48h-1.1a.47.47,0,0,1-.48-.48v-.75a2.5,2.5,0,0,0,1.2-.24,6.16,6.16,0,0,1-1.2-.06,6.41,6.41,0,0,1-2.84-1,.59.59,0,0,1-.18-.79l.59-1a.6.6,0,0,1,.84-.17,4.26,4.26,0,0,0,2.08.81c.51,0,1.51-.06,1.51-1,0-.79-1.13-1.12-2.37-1.74a3.14,3.14,0,0,1-2-2.7,3.23,3.23,0,0,1,2.37-3V359a.47.47,0,0,1,.48-.48h1.1a.49.49,0,0,1,.49.48v.81a2.4,2.4,0,0,0-1.21.26,5.42,5.42,0,0,1,1.21.06,6.2,6.2,0,0,1,1.74.6.58.58,0,0,1,.26.78l-.44.86a.6.6,0,0,1-.78.28,3.72,3.72,0,0,0-1.63-.44c-.83,0-1.26.35-1.26.93s1,1,2.19,1.52,2.47,1.49,2.47,2.87A3,3,0,0,1,1002.85,370.74Z"/><path class="cls-4" d="M1001.53,355.37a10.1,10.1,0,1,0,10.1,10.1A10.11,10.11,0,0,0,1001.53,355.37Zm0,19.13a9,9,0,1,1,9-9A9,9,0,0,1,1001.53,374.5Z"/><path class="cls-4" d="M1002.93,364.66c-1.2-.5-2.19-.89-2.19-1.51s.43-.94,1.26-.94a3.91,3.91,0,0,1,1.63.43.59.59,0,0,0,.78-.26l.43-.86a.58.58,0,0,0-.25-.79,5.87,5.87,0,0,0-1.75-.6,5.2,5.2,0,0,0-1.2-.06,2.38,2.38,0,0,1,1.2-.26V359a.48.48,0,0,0-.48-.49h-1.1a.49.49,0,0,0-.48.49v1.19a3.24,3.24,0,0,0-2.37,3,3.14,3.14,0,0,0,2,2.7c1.23.62,2.35.95,2.35,1.74,0,1-1,1-1.5,1a4.21,4.21,0,0,1-2.08-.82.58.58,0,0,0-.83.19l-.6,1a.6.6,0,0,0,.18.8,6.31,6.31,0,0,0,2.84,1,5.28,5.28,0,0,0,1.2.06,2.33,2.33,0,0,1-1.2.26v.74a.48.48,0,0,0,.48.48h1.1a.47.47,0,0,0,.48-.48v-1.19a3.06,3.06,0,0,0,2.56-3.22C1005.4,366.15,1004.1,365.16,1002.93,364.66Z"/><g class="cls-6"><path class="cls-7" d="M1026.27,467.88c101.85-55.65,184.41-127.74,184.41-161,0-16.1-19.35-20.16-50.86-13.75,41.25-2.66,40.9,16.78,20,43.7-53.29,68.52-195.32,151.2-279,173.12-34.4,9-57.23,6.82-56.41-12.72a31,31,0,0,0-2.45,11.19c0,33.27,82.56,15.12,184.4-40.53Z"/></g><polygon class="cls-4" points="1029.65 353.34 1029.65 353.34 1029.65 353.34 1029.65 353.34"/><polyline class="cls-4" points="1029.65 353.34 1029.65 353.34 1029.65 353.34 1029.65 353.34"/><path class="cls-4" d="M1210.68,306.87c0,16.64-20.65,43-54,72.11q-6.68,5.83-14,11.78-4.62,3.75-9.46,7.53c-29.43,22.93-65.29,46.64-104,68-.33.18-.65.37-1,.54l-1,.54c-.31.18-.62.34-.93.51-3,1.62-5.92,3.21-8.85,4.76-.32.18-.65.36-1,.52s-.65.36-1,.52q-7.94,4.19-15.67,8.05c-.32.16-.64.32-.95.46s-.6.31-.89.45q-9,4.5-17.74,8.52l-2.14,1-2.14,1c-77.37,35.12-134.06,42.87-134.06,15.3,0-18.78,26.29-49.91,67.49-83.46v12.33l.22-.19C886.83,458,873,476.12,873,487.37c0,13.35,19.35,14.25,50,4.89l1.75-.55c.67-.21,1.36-.42,2.05-.65,7-2.26,14.48-5,22.42-8.23,1.56-.62,3.15-1.27,4.73-1.95l2.33-1,2.29-1c1.47-.64,3-1.29,4.47-2l1-.45c.32-.13.65-.27,1-.43q2.91-1.31,5.88-2.68l1-.46c.32-.14.65-.3,1-.46,4.47-2.1,9-4.32,13.7-6.65l1-.49c.31-.17.63-.32,1-.49l2-1c2.42-1.23,4.87-2.51,7.34-3.81l1-.51,1-.52q7.71-4.08,15.67-8.56l1-.56c.33-.17.65-.36,1-.54.87-.51,1.76-1,2.65-1.51l7.13-4.13,1-.58,1-.58c20.59-12.15,40-24.94,57.48-37.61A490.35,490.35,0,0,0,1133.2,367q5.05-4.74,9.46-9.25c15.44-15.89,24.44-29.49,24.44-38.59,0-8.38-7.65-11.85-20.93-10.95l-.38-11.77C1185.49,285.8,1210.68,288.5,1210.68,306.87Z"/><polygon class="cls-4" points="1029.65 353.34 1029.65 353.34 1029.65 353.34 1029.65 353.34"/></svg>
